<mxfile host="65bd71144e">
    <diagram id="_4um6wa11FHuZKqNPsmf" name="Page-1">
        <mxGraphModel dx="978" dy="646" grid="1" gridSize="10" guides="1" tooltips="1" connect="1" arrows="1" fold="1" page="1" pageScale="1" pageWidth="850" pageHeight="1100" math="0" shadow="0">
            <root>
                <mxCell id="0"/>
                <mxCell id="1" parent="0"/>
                <mxCell id="32" value="" style="rounded=0;whiteSpace=wrap;html=1;" vertex="1" parent="1">
                    <mxGeometry x="560" y="600" width="220" height="400" as="geometry"/>
                </mxCell>
                <mxCell id="3" value="" style="shape=table;html=1;whiteSpace=wrap;startSize=0;container=1;collapsible=0;childLayout=tableLayout;" parent="1" vertex="1">
                    <mxGeometry x="130" y="120" width="290" height="350" as="geometry"/>
                </mxCell>
                <mxCell id="4" value="" style="shape=tableRow;horizontal=0;startSize=0;swimlaneHead=0;swimlaneBody=0;top=0;left=0;bottom=0;right=0;collapsible=0;dropTarget=0;fillColor=none;points=[[0,0.5],[1,0.5]];portConstraint=eastwest;" parent="3" vertex="1">
                    <mxGeometry width="290" height="117" as="geometry"/>
                </mxCell>
                <mxCell id="5" value="" style="shape=partialRectangle;html=1;whiteSpace=wrap;connectable=0;fillColor=none;top=0;left=0;bottom=0;right=0;overflow=hidden;" parent="4" vertex="1">
                    <mxGeometry width="97" height="117" as="geometry">
                        <mxRectangle width="97" height="117" as="alternateBounds"/>
                    </mxGeometry>
                </mxCell>
                <mxCell id="6" value="" style="shape=partialRectangle;html=1;whiteSpace=wrap;connectable=0;fillColor=none;top=0;left=0;bottom=0;right=0;overflow=hidden;" parent="4" vertex="1">
                    <mxGeometry x="97" width="96" height="117" as="geometry">
                        <mxRectangle width="96" height="117" as="alternateBounds"/>
                    </mxGeometry>
                </mxCell>
                <mxCell id="7" value="" style="shape=partialRectangle;html=1;whiteSpace=wrap;connectable=0;fillColor=none;top=0;left=0;bottom=0;right=0;overflow=hidden;" parent="4" vertex="1">
                    <mxGeometry x="193" width="97" height="117" as="geometry">
                        <mxRectangle width="97" height="117" as="alternateBounds"/>
                    </mxGeometry>
                </mxCell>
                <mxCell id="8" value="" style="shape=tableRow;horizontal=0;startSize=0;swimlaneHead=0;swimlaneBody=0;top=0;left=0;bottom=0;right=0;collapsible=0;dropTarget=0;fillColor=none;points=[[0,0.5],[1,0.5]];portConstraint=eastwest;" parent="3" vertex="1">
                    <mxGeometry y="117" width="290" height="116" as="geometry"/>
                </mxCell>
                <mxCell id="9" value="" style="shape=partialRectangle;html=1;whiteSpace=wrap;connectable=0;fillColor=none;top=0;left=0;bottom=0;right=0;overflow=hidden;" parent="8" vertex="1">
                    <mxGeometry width="97" height="116" as="geometry">
                        <mxRectangle width="97" height="116" as="alternateBounds"/>
                    </mxGeometry>
                </mxCell>
                <mxCell id="10" value="" style="shape=partialRectangle;html=1;whiteSpace=wrap;connectable=0;fillColor=none;top=0;left=0;bottom=0;right=0;overflow=hidden;" parent="8" vertex="1">
                    <mxGeometry x="97" width="96" height="116" as="geometry">
                        <mxRectangle width="96" height="116" as="alternateBounds"/>
                    </mxGeometry>
                </mxCell>
                <mxCell id="11" value="" style="shape=partialRectangle;html=1;whiteSpace=wrap;connectable=0;fillColor=none;top=0;left=0;bottom=0;right=0;overflow=hidden;" parent="8" vertex="1">
                    <mxGeometry x="193" width="97" height="116" as="geometry">
                        <mxRectangle width="97" height="116" as="alternateBounds"/>
                    </mxGeometry>
                </mxCell>
                <mxCell id="12" value="" style="shape=tableRow;horizontal=0;startSize=0;swimlaneHead=0;swimlaneBody=0;top=0;left=0;bottom=0;right=0;collapsible=0;dropTarget=0;fillColor=none;points=[[0,0.5],[1,0.5]];portConstraint=eastwest;" parent="3" vertex="1">
                    <mxGeometry y="233" width="290" height="117" as="geometry"/>
                </mxCell>
                <mxCell id="13" value="" style="shape=partialRectangle;html=1;whiteSpace=wrap;connectable=0;fillColor=none;top=0;left=0;bottom=0;right=0;overflow=hidden;" parent="12" vertex="1">
                    <mxGeometry width="97" height="117" as="geometry">
                        <mxRectangle width="97" height="117" as="alternateBounds"/>
                    </mxGeometry>
                </mxCell>
                <mxCell id="14" value="" style="shape=partialRectangle;html=1;whiteSpace=wrap;connectable=0;fillColor=none;top=0;left=0;bottom=0;right=0;overflow=hidden;" parent="12" vertex="1">
                    <mxGeometry x="97" width="96" height="117" as="geometry">
                        <mxRectangle width="96" height="117" as="alternateBounds"/>
                    </mxGeometry>
                </mxCell>
                <mxCell id="15" value="" style="shape=partialRectangle;html=1;whiteSpace=wrap;connectable=0;fillColor=none;top=0;left=0;bottom=0;right=0;overflow=hidden;pointerEvents=1;" parent="12" vertex="1">
                    <mxGeometry x="193" width="97" height="117" as="geometry">
                        <mxRectangle width="97" height="117" as="alternateBounds"/>
                    </mxGeometry>
                </mxCell>
                <mxCell id="16" value="Relational DB" style="text;html=1;align=center;verticalAlign=middle;resizable=0;points=[];autosize=1;strokeColor=none;fillColor=none;" parent="1" vertex="1">
                    <mxGeometry x="150" y="16" width="100" height="30" as="geometry"/>
                </mxCell>
                <mxCell id="17" value="&lt;font style=&quot;font-size: 36px;&quot;&gt;TABLE&lt;/font&gt;" style="text;html=1;strokeColor=none;fillColor=none;align=center;verticalAlign=middle;whiteSpace=wrap;rounded=0;" parent="1" vertex="1">
                    <mxGeometry x="250" y="70" width="60" height="30" as="geometry"/>
                </mxCell>
                <mxCell id="18" value="Row" style="text;html=1;strokeColor=none;fillColor=none;align=center;verticalAlign=middle;whiteSpace=wrap;rounded=0;fontSize=36;" parent="1" vertex="1">
                    <mxGeometry x="40" y="150" width="60" height="50" as="geometry"/>
                </mxCell>
                <mxCell id="20" value="&lt;pre style=&quot;border: 1px solid rgb(234, 236, 240); text-align: left; line-height: 1.3; font-family: monospace, monospace; background-color: rgb(248, 249, 250); color: rgb(0, 0, 0); padding: 1em; overflow-x: hidden; overflow-wrap: break-word; tab-size: 4; position: relative; font-size: 14px;&quot;&gt;&lt;span class=&quot;p&quot;&gt;{&lt;/span&gt;&lt;br&gt;&lt;span style=&quot;color: rgb(187, 187, 187);&quot; class=&quot;w&quot;&gt;    &lt;/span&gt;&lt;span style=&quot;color: rgb(186, 33, 33);&quot; class=&quot;s2&quot;&gt;&quot;FirstName&quot;&lt;/span&gt;&lt;span style=&quot;color: rgb(102, 102, 102);&quot; class=&quot;o&quot;&gt;:&lt;/span&gt;&lt;span style=&quot;color: rgb(187, 187, 187);&quot; class=&quot;w&quot;&gt; &lt;/span&gt;&lt;span style=&quot;color: rgb(186, 33, 33);&quot; class=&quot;s2&quot;&gt;&quot;Bob&quot;&lt;/span&gt;&lt;span class=&quot;p&quot;&gt;,&lt;/span&gt;&lt;span style=&quot;color: rgb(187, 187, 187);&quot; class=&quot;w&quot;&gt; &lt;/span&gt;&lt;br&gt;&lt;span style=&quot;color: rgb(187, 187, 187);&quot; class=&quot;w&quot;&gt;    &lt;/span&gt;&lt;span style=&quot;color: rgb(186, 33, 33);&quot; class=&quot;s2&quot;&gt;&quot;Address&quot;&lt;/span&gt;&lt;span style=&quot;color: rgb(102, 102, 102);&quot; class=&quot;o&quot;&gt;:&lt;/span&gt;&lt;span style=&quot;color: rgb(187, 187, 187);&quot; class=&quot;w&quot;&gt; &lt;/span&gt;&lt;span style=&quot;color: rgb(186, 33, 33);&quot; class=&quot;s2&quot;&gt;&quot;5 Oak St.&quot;&lt;/span&gt;&lt;span class=&quot;p&quot;&gt;,&lt;/span&gt;&lt;span style=&quot;color: rgb(187, 187, 187);&quot; class=&quot;w&quot;&gt; &lt;/span&gt;&lt;br&gt;&lt;span style=&quot;color: rgb(187, 187, 187);&quot; class=&quot;w&quot;&gt;    &lt;/span&gt;&lt;span style=&quot;color: rgb(186, 33, 33);&quot; class=&quot;s2&quot;&gt;&quot;Hobby&quot;&lt;/span&gt;&lt;span style=&quot;color: rgb(102, 102, 102);&quot; class=&quot;o&quot;&gt;:&lt;/span&gt;&lt;span style=&quot;color: rgb(187, 187, 187);&quot; class=&quot;w&quot;&gt; &lt;/span&gt;&lt;span style=&quot;color: rgb(186, 33, 33);&quot; class=&quot;s2&quot;&gt;&quot;sailing&quot;&lt;/span&gt;&lt;br&gt;&lt;span class=&quot;p&quot;&gt;}&lt;/span&gt;&lt;/pre&gt;" style="text;html=1;align=center;verticalAlign=middle;resizable=0;points=[];autosize=1;strokeColor=none;fillColor=none;fontSize=36;" parent="1" vertex="1">
                    <mxGeometry x="475" y="100" width="290" height="160" as="geometry"/>
                </mxCell>
                <mxCell id="21" value="&lt;pre style=&quot;border: 1px solid rgb(234, 236, 240); text-align: left; line-height: 1.3; font-family: monospace, monospace; background-color: rgb(248, 249, 250); color: rgb(0, 0, 0); padding: 1em; overflow-x: hidden; overflow-wrap: break-word; tab-size: 4; position: relative; font-size: 14px;&quot;&gt;&lt;span class=&quot;p&quot;&gt;{&lt;/span&gt;&lt;br&gt;&lt;span style=&quot;color: rgb(187, 187, 187);&quot; class=&quot;w&quot;&gt;    &lt;/span&gt;&lt;span style=&quot;color: rgb(186, 33, 33);&quot; class=&quot;s2&quot;&gt;&quot;FirstName&quot;&lt;/span&gt;&lt;span style=&quot;color: rgb(102, 102, 102);&quot; class=&quot;o&quot;&gt;:&lt;/span&gt;&lt;span style=&quot;color: rgb(187, 187, 187);&quot; class=&quot;w&quot;&gt; &lt;/span&gt;&lt;span style=&quot;color: rgb(186, 33, 33);&quot; class=&quot;s2&quot;&gt;&quot;Bob&quot;&lt;/span&gt;&lt;span class=&quot;p&quot;&gt;,&lt;/span&gt;&lt;span style=&quot;color: rgb(187, 187, 187);&quot; class=&quot;w&quot;&gt; &lt;/span&gt;&lt;br&gt;&lt;span style=&quot;color: rgb(187, 187, 187);&quot; class=&quot;w&quot;&gt;    &lt;/span&gt;&lt;span style=&quot;color: rgb(186, 33, 33);&quot; class=&quot;s2&quot;&gt;&quot;Address&quot;&lt;/span&gt;&lt;span style=&quot;color: rgb(102, 102, 102);&quot; class=&quot;o&quot;&gt;:&lt;/span&gt;&lt;span style=&quot;color: rgb(187, 187, 187);&quot; class=&quot;w&quot;&gt; &lt;/span&gt;&lt;span style=&quot;color: rgb(186, 33, 33);&quot; class=&quot;s2&quot;&gt;&quot;5 Oak St.&quot;&lt;/span&gt;&lt;span class=&quot;p&quot;&gt;,&lt;/span&gt;&lt;span style=&quot;color: rgb(187, 187, 187);&quot; class=&quot;w&quot;&gt; &lt;/span&gt;&lt;br&gt;&lt;span style=&quot;color: rgb(187, 187, 187);&quot; class=&quot;w&quot;&gt;    &lt;/span&gt;&lt;span style=&quot;color: rgb(186, 33, 33);&quot; class=&quot;s2&quot;&gt;&quot;Hobby&quot;&lt;/span&gt;&lt;span style=&quot;color: rgb(102, 102, 102);&quot; class=&quot;o&quot;&gt;:&lt;/span&gt;&lt;span style=&quot;color: rgb(187, 187, 187);&quot; class=&quot;w&quot;&gt; &lt;/span&gt;&lt;span style=&quot;color: rgb(186, 33, 33);&quot; class=&quot;s2&quot;&gt;&quot;sailing&quot;&lt;/span&gt;&lt;br&gt;&lt;span class=&quot;p&quot;&gt;}&lt;/span&gt;&lt;/pre&gt;" style="text;html=1;align=center;verticalAlign=middle;resizable=0;points=[];autosize=1;strokeColor=none;fillColor=none;fontSize=36;" parent="1" vertex="1">
                    <mxGeometry x="475" y="220" width="290" height="160" as="geometry"/>
                </mxCell>
                <mxCell id="22" value="&lt;pre style=&quot;border: 1px solid rgb(234, 236, 240); text-align: left; line-height: 1.3; font-family: monospace, monospace; background-color: rgb(248, 249, 250); color: rgb(0, 0, 0); padding: 1em; overflow-x: hidden; overflow-wrap: break-word; tab-size: 4; position: relative; font-size: 14px;&quot;&gt;&lt;span class=&quot;p&quot;&gt;{&lt;/span&gt;&lt;br&gt;&lt;span style=&quot;color: rgb(187, 187, 187);&quot; class=&quot;w&quot;&gt;    &lt;/span&gt;&lt;span style=&quot;color: rgb(186, 33, 33);&quot; class=&quot;s2&quot;&gt;&quot;FirstName&quot;&lt;/span&gt;&lt;span style=&quot;color: rgb(102, 102, 102);&quot; class=&quot;o&quot;&gt;:&lt;/span&gt;&lt;span style=&quot;color: rgb(187, 187, 187);&quot; class=&quot;w&quot;&gt; &lt;/span&gt;&lt;span style=&quot;color: rgb(186, 33, 33);&quot; class=&quot;s2&quot;&gt;&quot;Bob&quot;&lt;/span&gt;&lt;span class=&quot;p&quot;&gt;,&lt;/span&gt;&lt;span style=&quot;color: rgb(187, 187, 187);&quot; class=&quot;w&quot;&gt; &lt;/span&gt;&lt;br&gt;&lt;span style=&quot;color: rgb(187, 187, 187);&quot; class=&quot;w&quot;&gt;    &lt;/span&gt;&lt;span style=&quot;color: rgb(186, 33, 33);&quot; class=&quot;s2&quot;&gt;&quot;Address&quot;&lt;/span&gt;&lt;span style=&quot;color: rgb(102, 102, 102);&quot; class=&quot;o&quot;&gt;:&lt;/span&gt;&lt;span style=&quot;color: rgb(187, 187, 187);&quot; class=&quot;w&quot;&gt; &lt;/span&gt;&lt;span style=&quot;color: rgb(186, 33, 33);&quot; class=&quot;s2&quot;&gt;&quot;5 Oak St.&quot;&lt;/span&gt;&lt;span class=&quot;p&quot;&gt;,&lt;/span&gt;&lt;span style=&quot;color: rgb(187, 187, 187);&quot; class=&quot;w&quot;&gt; &lt;/span&gt;&lt;br&gt;&lt;span style=&quot;color: rgb(187, 187, 187);&quot; class=&quot;w&quot;&gt;    &lt;/span&gt;&lt;span style=&quot;color: rgb(186, 33, 33);&quot; class=&quot;s2&quot;&gt;&quot;Hobby&quot;&lt;/span&gt;&lt;span style=&quot;color: rgb(102, 102, 102);&quot; class=&quot;o&quot;&gt;:&lt;/span&gt;&lt;span style=&quot;color: rgb(187, 187, 187);&quot; class=&quot;w&quot;&gt; &lt;/span&gt;&lt;span style=&quot;color: rgb(186, 33, 33);&quot; class=&quot;s2&quot;&gt;&quot;sailing&quot;&lt;/span&gt;&lt;br&gt;&lt;span class=&quot;p&quot;&gt;}&lt;/span&gt;&lt;/pre&gt;" style="text;html=1;align=center;verticalAlign=middle;resizable=0;points=[];autosize=1;strokeColor=none;fillColor=none;fontSize=36;" parent="1" vertex="1">
                    <mxGeometry x="475" y="340" width="290" height="160" as="geometry"/>
                </mxCell>
                <mxCell id="24" value="" style="ellipse;whiteSpace=wrap;html=1;" vertex="1" parent="1">
                    <mxGeometry x="20" y="710" width="120" height="80" as="geometry"/>
                </mxCell>
                <mxCell id="25" value="" style="ellipse;whiteSpace=wrap;html=1;" vertex="1" parent="1">
                    <mxGeometry x="150" y="710" width="120" height="80" as="geometry"/>
                </mxCell>
                <mxCell id="26" value="" style="ellipse;whiteSpace=wrap;html=1;" vertex="1" parent="1">
                    <mxGeometry x="670" y="750" width="120" height="80" as="geometry"/>
                </mxCell>
                <mxCell id="27" value="" style="ellipse;whiteSpace=wrap;html=1;" vertex="1" parent="1">
                    <mxGeometry x="560" y="650" width="120" height="80" as="geometry"/>
                </mxCell>
                <mxCell id="28" value="" style="ellipse;whiteSpace=wrap;html=1;" vertex="1" parent="1">
                    <mxGeometry x="680" y="650" width="120" height="80" as="geometry"/>
                </mxCell>
                <mxCell id="29" value="" style="ellipse;whiteSpace=wrap;html=1;" vertex="1" parent="1">
                    <mxGeometry x="20" y="810" width="120" height="80" as="geometry"/>
                </mxCell>
                <mxCell id="30" value="" style="ellipse;whiteSpace=wrap;html=1;" vertex="1" parent="1">
                    <mxGeometry x="150" y="810" width="120" height="80" as="geometry"/>
                </mxCell>
                <mxCell id="31" value="" style="ellipse;whiteSpace=wrap;html=1;" vertex="1" parent="1">
                    <mxGeometry x="550" y="750" width="120" height="80" as="geometry"/>
                </mxCell>
            </root>
        </mxGraphModel>
    </diagram>
</mxfile>